<svg width="16" height="17" viewBox="0 0 16 17" fill="none" xmlns="http://www.w3.org/2000/svg">
<path d="M7.29298 12.207C7.48051 12.3945 7.73482 12.4998 7.99998 12.4998C8.26514 12.4998 8.51945 12.3945 8.70698 12.207L12.707 8.207C12.8891 8.0184 12.9899 7.7658 12.9877 7.5036C12.9854 7.2414 12.8802 6.99059 12.6948 6.80518C12.5094 6.61978 12.2586 6.51461 11.9964 6.51233C11.7342 6.51005 11.4816 6.61085 11.293 6.793L7.99998 10.086L4.70698 6.793C4.51838 6.61085 4.26578 6.51005 4.00358 6.51233C3.74138 6.51461 3.49057 6.61978 3.30516 6.80518C3.11975 6.99059 3.01458 7.2414 3.01231 7.5036C3.01003 7.7658 3.11082 8.0184 3.29298 8.207L7.29298 12.207Z" fill="#001122" fill-opacity="0.45"/>
</svg>
