<svg width="24" height="25" viewBox="0 0 24 25" fill="none" xmlns="http://www.w3.org/2000/svg">
<path d="M8 12.5C8.26522 12.5 8.51957 12.3946 8.70711 12.2071C8.89464 12.0196 9 11.7652 9 11.5C9 11.2348 8.89464 10.9804 8.70711 10.7929C8.51957 10.6054 8.26522 10.5 8 10.5C7.73478 10.5 7.48043 10.6054 7.29289 10.7929C7.10536 10.9804 7 11.2348 7 11.5C7 11.7652 7.10536 12.0196 7.29289 12.2071C7.48043 12.3946 7.73478 12.5 8 12.5ZM13 11.5C13 11.7652 12.8946 12.0196 12.7071 12.2071C12.5196 12.3946 12.2652 12.5 12 12.5C11.7348 12.5 11.4804 12.3946 11.2929 12.2071C11.1054 12.0196 11 11.7652 11 11.5C11 11.2348 11.1054 10.9804 11.2929 10.7929C11.4804 10.6054 11.7348 10.5 12 10.5C12.2652 10.5 12.5196 10.6054 12.7071 10.7929C12.8946 10.9804 13 11.2348 13 11.5ZM16 12.5C16.2652 12.5 16.5196 12.3946 16.7071 12.2071C16.8946 12.0196 17 11.7652 17 11.5C17 11.2348 16.8946 10.9804 16.7071 10.7929C16.5196 10.6054 16.2652 10.5 16 10.5C15.7348 10.5 15.4804 10.6054 15.2929 10.7929C15.1054 10.9804 15 11.2348 15 11.5C15 11.7652 15.1054 12.0196 15.2929 12.2071C15.4804 12.3946 15.7348 12.5 16 12.5Z" fill="#001122" fill-opacity="0.45"/>
<path d="M1 9.5C1 7.64348 1.7375 5.86301 3.05025 4.55025C4.36301 3.2375 6.14348 2.5 8 2.5H16C17.8565 2.5 19.637 3.2375 20.9497 4.55025C22.2625 5.86301 23 7.64348 23 9.5V12.5C22.9999 14.2185 22.3677 15.877 21.2239 17.1596C20.08 18.4421 18.5043 19.2591 16.797 19.455C16.7008 19.4849 16.6007 19.5 16.5 19.5H11.414L7.707 23.207C7.56715 23.3468 7.38898 23.442 7.19503 23.4806C7.00108 23.5192 6.80005 23.4993 6.61735 23.4237C6.43465 23.348 6.27848 23.2199 6.1686 23.0555C6.05871 22.891 6.00004 22.6978 6 22.5V19.417C4.60193 19.1803 3.33281 18.4562 2.4176 17.3732C1.50239 16.2901 1.00018 14.918 1 13.5V9.5ZM10.3 17.786C10.486 17.6032 10.7362 17.5005 10.997 17.5H16C17.3261 17.5 18.5979 16.9732 19.5355 16.0355C20.4732 15.0979 21 13.8261 21 12.5V9.5C21 8.17392 20.4732 6.90215 19.5355 5.96447C18.5979 5.02678 17.3261 4.5 16 4.5H8C6.67392 4.5 5.40215 5.02678 4.46447 5.96447C3.52678 6.90215 3 8.17392 3 9.5V13.5C3 14.5609 3.42143 15.5783 4.17157 16.3284C4.92172 17.0786 5.93913 17.5 7 17.5C7.26522 17.5 7.51957 17.6054 7.70711 17.7929C7.89464 17.9804 8 18.2348 8 18.5V20.086L10.292 17.794L10.3 17.786Z" fill="#001122" fill-opacity="0.45"/>
</svg>
