<svg width="24" height="25" viewBox="0 0 24 25" fill="none" xmlns="http://www.w3.org/2000/svg">
<g clip-path="url(#clip0_1_251)">
<path d="M11 3.5H17C18.0494 3.5 19.0722 3.83019 19.9235 4.44379C20.7749 5.05739 21.4116 5.9233 21.7434 6.91886C22.0753 7.91442 22.0855 8.98916 21.7726 9.99084C21.4597 10.9925 20.8395 11.8704 20 12.5C20 10.6435 19.2625 8.86301 17.9497 7.55025C16.637 6.2375 14.8565 5.5 13 5.5H10C9.73478 5.5 9.48043 5.60536 9.29289 5.79289C9.10535 5.98043 9 6.23478 9 6.5C9 6.76522 9.10535 7.01957 9.29289 7.20711C9.48043 7.39464 9.73478 7.5 10 7.5H13C14.3261 7.5 15.5978 8.02678 16.5355 8.96447C17.4732 9.90215 18 11.1739 18 12.5C18 13.8261 17.4732 15.0979 16.5355 16.0355C15.5978 16.9732 14.3261 17.5 13 17.5H10C9.7348 17.5001 9.48049 17.6054 9.293 17.793L7 20.086V18.417C6.99993 18.1804 6.916 17.9516 6.76312 17.771C6.61024 17.5905 6.39831 17.47 6.165 17.431C5.05401 17.2423 4.03927 16.6841 3.28522 15.8466C2.53117 15.0092 2.08199 13.9417 2.01046 12.8171C1.93894 11.6925 2.24926 10.5766 2.89114 9.65042C3.53303 8.72421 4.46886 8.04188 5.547 7.714C5.70447 7.66628 5.84773 7.58044 5.96408 7.46409C6.08043 7.34774 6.16628 7.20447 6.214 7.047C6.52614 6.02085 7.15981 5.12217 8.02154 4.48353C8.88326 3.84489 9.92742 3.5001 11 3.5ZM19.529 15.029C21.051 14.4379 22.3186 13.3334 23.1126 11.9066C23.9065 10.4798 24.1768 8.82039 23.8768 7.21539C23.5767 5.61038 22.7252 4.16069 21.4695 3.11704C20.2138 2.07339 18.6328 1.5014 17 1.5H11C9.58778 1.49991 8.20855 1.92685 7.04335 2.72476C5.87816 3.52268 4.98147 4.65427 4.471 5.971C3.10958 6.49853 1.94713 7.43845 1.14627 8.65925C0.345403 9.88005 -0.053807 11.3207 0.00448657 12.7795C0.0627801 14.2384 0.575661 15.6426 1.47138 16.7956C2.36709 17.9486 3.60083 18.7928 5 19.21V22.5C5.00004 22.6978 5.05871 22.891 5.16859 23.0555C5.27848 23.2199 5.43464 23.348 5.61734 23.4237C5.80004 23.4993 6.00107 23.5192 6.19503 23.4806C6.38898 23.442 6.56714 23.3468 6.707 23.207L10.414 19.5H13C14.4122 19.5001 15.7914 19.0732 16.9566 18.2752C18.1218 17.4773 19.0185 16.3457 19.529 15.029Z" fill="white" fill-opacity="0.95"/>
<path d="M7 12.5C7 12.7652 6.89464 13.0196 6.70711 13.2071C6.51957 13.3946 6.26522 13.5 6 13.5C5.73478 13.5 5.48043 13.3946 5.29289 13.2071C5.10536 13.0196 5 12.7652 5 12.5C5 12.2348 5.10536 11.9804 5.29289 11.7929C5.48043 11.6054 5.73478 11.5 6 11.5C6.26522 11.5 6.51957 11.6054 6.70711 11.7929C6.89464 11.9804 7 12.2348 7 12.5ZM11 12.5C11 12.7652 10.8946 13.0196 10.7071 13.2071C10.5196 13.3946 10.2652 13.5 10 13.5C9.73478 13.5 9.48043 13.3946 9.29289 13.2071C9.10536 13.0196 9 12.7652 9 12.5C9 12.2348 9.10536 11.9804 9.29289 11.7929C9.48043 11.6054 9.73478 11.5 10 11.5C10.2652 11.5 10.5196 11.6054 10.7071 11.7929C10.8946 11.9804 11 12.2348 11 12.5ZM15 12.5C15 12.7652 14.8946 13.0196 14.7071 13.2071C14.5196 13.3946 14.2652 13.5 14 13.5C13.7348 13.5 13.4804 13.3946 13.2929 13.2071C13.1054 13.0196 13 12.7652 13 12.5C13 12.2348 13.1054 11.9804 13.2929 11.7929C13.4804 11.6054 13.7348 11.5 14 11.5C14.2652 11.5 14.5196 11.6054 14.7071 11.7929C14.8946 11.9804 15 12.2348 15 12.5Z" fill="white" fill-opacity="0.95"/>
</g>
<defs>
<clipPath id="clip0_1_251">
<rect width="24" height="24" fill="white" transform="translate(0 0.5)"/>
</clipPath>
</defs>
</svg>
