<svg width="24" height="25" viewBox="0 0 24 25" fill="none" xmlns="http://www.w3.org/2000/svg">
<g clip-path="url(#clip0_1_35)">
<path d="M12.414 3.59C12.284 3.53087 12.1428 3.50027 12 3.50027C11.8572 3.50027 11.716 3.53087 11.586 3.59L0.586002 8.59C0.411414 8.66954 0.263393 8.79763 0.159597 8.95898C0.0558003 9.12034 0.000610352 9.30814 0.000610352 9.5C0.000610352 9.69185 0.0558003 9.87966 0.159597 10.041C0.263393 10.2024 0.411414 10.3305 0.586002 10.41L4 11.962V18.5C4.00022 18.7571 4.09942 19.0041 4.277 19.19C4.431 19.352 4.61 19.491 4.79 19.622C5.101 19.848 5.558 20.132 6.18 20.412C7.428 20.972 9.318 21.5 12 21.5C14.682 21.5 16.572 20.973 17.82 20.412C18.3091 20.1968 18.7748 19.9321 19.21 19.622C19.39 19.492 19.567 19.352 19.722 19.192C19.899 19.006 20 18.757 20 18.5V11.962L22 11.053V13.5C22 13.7652 22.1054 14.0196 22.2929 14.2071C22.4804 14.3946 22.7348 14.5 23 14.5C23.2652 14.5 23.5196 14.3946 23.7071 14.2071C23.8946 14.0196 24 13.7652 24 13.5V9.5C23.9999 9.30808 23.9447 9.12022 23.8408 8.95886C23.7369 8.7975 23.5887 8.66945 23.414 8.59L12.414 3.59ZM6 18.028V12.871L11.586 15.411C11.716 15.4701 11.8572 15.5007 12 15.5007C12.1428 15.5007 12.284 15.4701 12.414 15.411L18 12.87V18.027C17.6855 18.2455 17.3506 18.4331 17 18.587C16.022 19.027 14.412 19.499 12 19.499C9.588 19.499 7.978 19.026 7 18.587C6.64936 18.4331 6.31446 18.2465 6 18.028ZM20.583 9.5L18.607 10.398C18.5935 10.404 18.5802 10.4104 18.567 10.417L12 13.402L3.417 9.5L12 5.598L20.583 9.5ZM24 17.5C24 17.2348 23.8946 16.9804 23.7071 16.7929C23.5196 16.6054 23.2652 16.5 23 16.5C22.7348 16.5 22.4804 16.6054 22.2929 16.7929C22.1054 16.9804 22 17.2348 22 17.5V18.5C22 18.7652 22.1054 19.0196 22.2929 19.2071C22.4804 19.3946 22.7348 19.5 23 19.5C23.2652 19.5 23.5196 19.3946 23.7071 19.2071C23.8946 19.0196 24 18.7652 24 18.5V17.5Z" fill="#001122" fill-opacity="0.45"/>
</g>
<defs>
<clipPath id="clip0_1_35">
<rect width="24" height="24" fill="white" transform="translate(0 0.5)"/>
</clipPath>
</defs>
</svg>
