<svg width="23" height="23" viewBox="0 0 23 23" fill="none" xmlns="http://www.w3.org/2000/svg">
<path d="M10.6927 16.1771H12.526V10.6771H10.6927V16.1771ZM11.6094 2.42706C6.54935 2.42706 2.44269 6.53373 2.44269 11.5937C2.44269 16.6537 6.54935 20.7604 11.6094 20.7604C16.6694 20.7604 20.776 16.6537 20.776 11.5937C20.776 6.53373 16.6694 2.42706 11.6094 2.42706ZM11.6094 18.9271C7.56685 18.9271 4.27602 15.6362 4.27602 11.5937C4.27602 7.55123 7.56685 4.2604 11.6094 4.2604C15.6519 4.2604 18.9427 7.55123 18.9427 11.5937C18.9427 15.6362 15.6519 18.9271 11.6094 18.9271ZM10.6927 8.84373H12.526V7.0104H10.6927V8.84373Z" fill="#48556E"/>
</svg>
