<svg width="148" height="21" viewBox="0 0 148 21" fill="none" xmlns="http://www.w3.org/2000/svg">
<path d="M37.9266 15.3585H30.0975L40.0956 2.064C40.2019 1.92116 40.2473 1.74199 40.2218 1.56574C40.1962 1.3895 40.1019 1.23057 39.9594 1.12377C39.8452 1.03785 39.7062 0.99136 39.5633 0.991316H25.0978C23.823 0.991316 22.787 2.03167 22.787 3.31268C22.787 4.59369 23.8224 5.63404 25.0978 5.63404H31.6017L21.5651 18.9354C21.4888 19.0342 21.4418 19.1525 21.4295 19.2767C21.4173 19.401 21.4402 19.5262 21.4957 19.638C21.5513 19.7498 21.6371 19.8438 21.7435 19.9091C21.8499 19.9744 21.9726 20.0085 22.0974 20.0075H37.9266C38.5401 19.9734 39.1151 19.6975 39.5255 19.2402C39.9359 18.7829 40.1483 18.1816 40.1161 17.5679C40.0877 16.9956 39.8483 16.454 39.4441 16.0478C39.0398 15.6416 38.4994 15.3996 37.9272 15.3685V15.3579L37.9266 15.3585ZM88.4791 0.987585C88.1749 0.988155 87.8737 1.04869 87.5929 1.16572C87.3121 1.28275 87.0571 1.45398 86.8425 1.66963C86.6279 1.88528 86.4579 2.14111 86.3422 2.42251C86.2265 2.7039 86.1674 3.00533 86.1683 3.30957V11.0995L73.671 1.13869C73.5737 1.05822 73.4552 1.00733 73.3298 0.992065C73.2044 0.976799 73.0773 0.997792 72.9634 1.05256C72.8496 1.10732 72.7538 1.19357 72.6874 1.30108C72.6211 1.40859 72.5869 1.53286 72.589 1.65918V17.6724C72.589 18.9534 73.625 19.9938 74.8998 19.9938C76.1752 19.9938 77.2106 18.9534 77.2106 17.6724V9.88686L89.7079 19.8539C89.9971 20.0839 90.4187 20.0298 90.6469 19.7394C90.7402 19.6213 90.7899 19.477 90.7899 19.3265V3.3133C90.7899 2.02856 89.7576 0.987585 88.4791 0.987585ZM55.4167 15.8C50.131 15.8 46.1735 13.0011 46.1735 10.4963C46.1735 7.99209 50.1272 5.19315 55.4167 5.19315C60.7061 5.19315 64.6598 7.99147 64.6598 10.4963C64.6598 13.0011 60.7173 15.7994 55.4167 15.7994V15.8ZM55.4167 0.550425C47.763 0.550425 41.5594 4.99975 41.5594 10.4932C41.5594 15.986 47.763 20.4353 55.4167 20.4353C63.071 20.4353 69.2746 15.986 69.2746 10.4925C69.2746 4.99975 63.071 0.550425 55.4167 0.550425ZM9.91103 15.8031C6.99331 15.8069 4.62158 13.4314 4.61785 10.5C4.61474 7.56861 6.97901 5.18631 9.89735 5.18258C12.8151 5.17885 15.1862 7.55431 15.1899 10.4857V10.4925C15.1899 13.4246 12.8256 15.7994 9.91103 15.8031ZM9.91103 0.550425C4.44 0.546694 0.00373345 4.99975 2.35376e-06 10.4932C-0.00372874 15.9897 4.42881 20.4452 9.89673 20.4496C15.3653 20.4533 19.8046 16.0003 19.8084 10.5075V10.4963C19.8084 5.00286 15.3758 0.550425 9.91103 0.550425Z" fill="#005BFF"/>
<path d="M106.746 12.1435L104.096 10.1089C103.313 9.49509 102.928 9.02871 102.928 8.35089C102.928 7.56861 103.438 7.08045 104.624 7.08045C105.618 7.08045 106.72 7.43926 107.611 7.94918L108.606 5.85355C107.568 5.32622 106.189 4.85983 104.684 4.85983C102.078 4.85983 100.53 6.25526 100.53 8.43671C100.53 9.96148 101.291 11.0423 102.566 12.0353L105.087 14.0271C106.146 14.8523 106.656 15.4661 106.656 16.2907C106.656 17.285 105.895 18.0704 104.304 18.0704C102.864 18.0704 101.442 17.4143 100.491 16.8652L99.4958 18.9385C100.663 19.681 102.397 20.3128 104.286 20.3128C107.105 20.3128 109.033 18.8738 109.033 16.165C109.033 14.4711 108.272 13.3058 106.746 12.1435ZM115.41 9.89743C112.275 9.89743 110.412 12.161 110.412 15.1247C110.412 18.2178 112.405 20.3134 115.518 20.3134C117.935 20.3134 119.228 18.9783 119.946 17.9846L118.484 16.6066C117.996 17.2632 117.087 18.3216 115.475 18.3216C113.801 18.3216 112.595 17.1774 112.509 15.4406H120.093V15.1035C120.093 11.9533 118.398 9.89743 115.41 9.89743ZM112.613 13.9407C112.868 12.5235 113.884 11.8022 115.281 11.8022C116.764 11.8022 117.759 12.5844 117.845 13.9413L112.613 13.9407ZM122.104 19.9975H124.179V5.17884H122.104V19.9975ZM126.934 19.9975H129.009V5.17884H126.934V19.9975ZM147.972 9.91857C146.32 9.91857 145.197 10.8911 144.73 12.355H144.687V10.2164H142.611V19.9975H144.687V15.6557C144.687 13.3275 145.768 12.3512 147.8 12.3512H148.116V9.91546H147.972V9.91857ZM136.026 9.89743C132.89 9.89743 131.027 12.161 131.027 15.1247C131.027 18.2178 133.02 20.3134 136.133 20.3134C138.55 20.3134 139.843 18.9783 140.561 17.9846L139.099 16.6066C138.611 17.2632 137.702 18.3216 136.09 18.3216C134.417 18.3216 133.21 17.1774 133.124 15.4406H140.708V15.1035C140.708 11.9533 139.013 9.89743 136.026 9.89743ZM133.228 13.9407C133.483 12.5235 134.499 11.8022 135.896 11.8022C137.379 11.8022 138.374 12.5844 138.46 13.9413L133.228 13.9407Z" fill="#001A34"/>
</svg>
