<svg width="24" height="25" viewBox="0 0 24 25" fill="none" xmlns="http://www.w3.org/2000/svg">
<g clip-path="url(#clip0_1_31)">
<path d="M12 8.5C10.886 8.5 10.14 9.07 9.96998 9.744C9.90526 10.0013 9.74101 10.2223 9.51334 10.3584C9.28567 10.4946 9.01324 10.5347 8.75598 10.47C8.49872 10.4053 8.2777 10.241 8.14155 10.0134C8.0054 9.78569 7.96526 9.51326 8.02998 9.256C8.49598 7.409 10.298 6.5 12 6.5C13.139 6.5 14.137 6.844 14.865 7.484C15.2238 7.79722 15.5109 8.18408 15.7068 8.61825C15.9026 9.05243 16.0026 9.5237 16 10C16 11.232 15.47 12.07 14.86 12.663C14.682 12.835 14.445 12.995 14.2 13.162C13.664 13.525 13.087 13.915 13.002 14.511C12.925 15.046 12.592 15.5 12 15.5C11.448 15.5 11 15.05 11 14.498C11.014 13.296 11.88 12.578 12.728 11.873C12.983 11.661 13.238 11.45 13.466 11.228C13.786 10.918 14 10.568 14 10C14 9.598 13.841 9.248 13.544 8.986C13.24 8.72 12.74 8.5 12 8.5ZM12 18.5C12.2652 18.5 12.5195 18.3946 12.7071 18.2071C12.8946 18.0196 13 17.7652 13 17.5C13 17.2348 12.8946 16.9804 12.7071 16.7929C12.5195 16.6054 12.2652 16.5 12 16.5C11.7348 16.5 11.4804 16.6054 11.2929 16.7929C11.1053 16.9804 11 17.2348 11 17.5C11 17.7652 11.1053 18.0196 11.2929 18.2071C11.4804 18.3946 11.7348 18.5 12 18.5Z" fill="#001122" fill-opacity="0.45"/>
<path d="M1 12.5C1 6.425 5.925 1.5 12 1.5C18.075 1.5 23 6.425 23 12.5C23 18.575 18.075 23.5 12 23.5C5.925 23.5 1 18.575 1 12.5ZM12 3.5C10.8181 3.5 9.64778 3.73279 8.55585 4.18508C7.46392 4.63738 6.47177 5.30031 5.63604 6.13604C4.80031 6.97177 4.13738 7.96392 3.68508 9.05585C3.23279 10.1478 3 11.3181 3 12.5C3 13.6819 3.23279 14.8522 3.68508 15.9442C4.13738 17.0361 4.80031 18.0282 5.63604 18.864C6.47177 19.6997 7.46392 20.3626 8.55585 20.8149C9.64778 21.2672 10.8181 21.5 12 21.5C14.3869 21.5 16.6761 20.5518 18.364 18.864C20.0518 17.1761 21 14.8869 21 12.5C21 10.1131 20.0518 7.82387 18.364 6.13604C16.6761 4.44821 14.3869 3.5 12 3.5Z" fill="#001122" fill-opacity="0.45"/>
</g>
<defs>
<clipPath id="clip0_1_31">
<rect width="24" height="24" fill="white" transform="translate(0 0.5)"/>
</clipPath>
</defs>
</svg>
