<svg width="20" height="21" viewBox="0 0 20 21" fill="none" xmlns="http://www.w3.org/2000/svg">
<path d="M10 2.5C9.60606 2.5 9.21595 2.5776 8.85197 2.72836C8.488 2.87913 8.15728 3.1001 7.8787 3.37868C7.60013 3.65726 7.37915 3.98797 7.22839 4.35195C7.07762 4.71593 7.00002 5.10603 7.00002 5.5C7.00002 5.89397 7.07762 6.28407 7.22839 6.64805C7.37915 7.01203 7.60013 7.34274 7.8787 7.62132C8.15728 7.8999 8.488 8.12087 8.85197 8.27164C9.21595 8.4224 9.60606 8.5 10 8.5C10.7957 8.5 11.5587 8.18393 12.1213 7.62132C12.684 7.05871 13 6.29565 13 5.5C13 4.70435 12.684 3.94129 12.1213 3.37868C11.5587 2.81607 10.7957 2.5 10 2.5ZM5.00002 5.5C5.00002 4.17392 5.52681 2.90215 6.46449 1.96447C7.40217 1.02678 8.67394 0.5 10 0.5C11.3261 0.5 12.5979 1.02678 13.5356 1.96447C14.4732 2.90215 15 4.17392 15 5.5C15 6.82608 14.4732 8.09785 13.5356 9.03553C12.5979 9.97322 11.3261 10.5 10 10.5C8.67394 10.5 7.40217 9.97322 6.46449 9.03553C5.52681 8.09785 5.00002 6.82608 5.00002 5.5ZM6.63802 13.5C6.05084 13.4999 5.47653 13.6721 4.98627 13.9952C4.49602 14.3184 4.11137 14.7783 3.88002 15.318L1.92002 19.894C1.81553 20.138 1.61839 20.3305 1.37196 20.4291C1.12554 20.5278 0.850023 20.5245 0.606024 20.42C0.362025 20.3155 0.16953 20.1184 0.070886 19.8719C-0.0277581 19.6255 -0.0244712 19.35 0.0800241 19.106L2.04202 14.53C2.42756 13.6306 3.06853 12.8641 3.88549 12.3256C4.70245 11.787 5.6595 11.4999 6.63802 11.5H13.362C14.3406 11.4999 15.2976 11.787 16.1146 12.3256C16.9315 12.8641 17.5725 13.6306 17.958 14.53L19.919 19.106C20.0191 19.3489 20.0196 19.6215 19.9203 19.8648C19.821 20.108 19.6299 20.3025 19.3885 20.406C19.147 20.5095 18.8744 20.5139 18.6298 20.4181C18.3851 20.3222 18.188 20.134 18.081 19.894L16.12 15.318C15.8887 14.7783 15.504 14.3184 15.0138 13.9952C14.5235 13.6721 13.9492 13.4999 13.362 13.5H6.63802Z" fill="#001122" fill-opacity="0.45"/>
</svg>
